<?xml version="1.0" encoding="UTF-8"?>
<svg xmlns="http://www.w3.org/2000/svg" id="a" width="865.76" height="682.89" viewBox="0 0 865.76 682.89">
  <path d="m155.08,206.71l-17.82-8c-1.16-.52-2.11-1.4-2.71-2.52l-3.04-5.66c-.65-1.21-1.91-1.96-3.28-1.96h-14.02c-1.3,0-2.51.68-3.18,1.79l-3.65,6.02c-.56.93-1.37,1.67-2.34,2.16l-16.31,8.16c-.38.19-.58.62-.48,1.04l.86,3.49c.1.41.46.69.88.69h63.74c.41,0,.77-.27.88-.66l.97-3.47c.12-.44-.09-.9-.51-1.08Zm-13.93,2.99h-41.95c-.31,0-.37-.43-.08-.52l8.55-2.56c.87-.26,1.65-.76,2.25-1.44l2.92-3.29c.93-1.05,2.26-1.64,3.66-1.64h10.07c1.23,0,2.41.46,3.31,1.29l4.52,4.17c.37.34.78.62,1.23.83l5.62,2.65c.26.12.17.51-.11.51Z" fill="#fff" stroke="#0d2445" stroke-miterlimit="10"></path>
  <path d="m158.85,351.84c-35.5,7.8-61.45,5.53-71.14,4.16-2.37-.34-4.11-2.41-4.02-4.8l3.32-96.91c.05-1.5-.62-2.94-1.81-3.86l-5.5-4.28c-1.26-.98-1.93-2.52-1.79-4.11.98-11.72,5.59-26.73,7.27-31.9.38-1.18,1.22-2.16,2.32-2.72l4.08-2.09c1.71-.88,3.77-.62,5.22.64,6.62,5.76,26.44,19.71,43.16-2.03,1.34-1.74,3.71-2.32,5.7-1.38l7.73,3.63c1.3.61,2.24,1.77,2.57,3.17l8.05,34.17c.67,2.84-1.4,5.6-4.31,5.76l-.8.04c-2.65.14-4.65,2.45-4.42,5.09l8.05,92.47c.2,2.35-1.37,4.48-3.67,4.99Z" fill="#f58f74" stroke="#0d2445" stroke-miterlimit="10"></path>
  <path d="m171.36,189.09v-4.89c0-.46-.34-.86-.8-.93-4.25-.69-7.45-4.52-7.16-9.03.28-4.23,3.74-7.7,7.97-7.97,3.31-.22,6.26,1.45,7.86,4.04" fill="none" stroke="#0d2445" stroke-linecap="round" stroke-linejoin="round"></path>
  <path d="m123.61,188.57v-4.89c0-.46-.34-.86-.8-.93-4.25-.69-7.45-4.52-7.16-9.03.28-4.23,3.74-7.7,7.97-7.97,3.31-.22,6.26,1.45,7.86,4.04" fill="none" stroke="#0d2445" stroke-linecap="round" stroke-linejoin="round"></path>
  <path d="m83.73,350.08s34.01,4.55,78.64-5.04" fill="none" stroke="#0d2445" stroke-linecap="round" stroke-linejoin="round"></path>
  <line x1="87.09" y1="251.89" x2="88.23" y2="229.05" fill="none" stroke="#0d2445" stroke-linecap="round" stroke-linejoin="round"></line>
  <path d="m85.78,208.29s4.5,3.11,7.57,17.65" fill="none" stroke="#0d2445" stroke-linecap="round" stroke-linejoin="round"></path>
  <path d="m91.16,205.49s18.02,34.57,59.66-.52" fill="none" stroke="#0d2445" stroke-linecap="round" stroke-linejoin="round"></path>
  <line x1="120.18" y1="236.8" x2="120.18" y2="220.7" fill="none" stroke="#0d2445" stroke-linecap="round" stroke-linejoin="round"></line>
  <path d="m85.78,294.94h13.15l-1.47,29.62-6.56,4.69c-1.51,1.08-3.6.81-4.78-.63l-1.61-1.95" fill="none" stroke="#0d2445" stroke-linecap="round" stroke-linejoin="round"></path>
  <path d="m85.78,301.76s4.6,2.11,12.82,0" fill="none" stroke="#0d2445" stroke-linecap="round" stroke-linejoin="round"></path>
  <polygon points="150.82 210.21 163.39 193.73 175.6 193.73 195 210.71 177.67 289.26 150.82 210.21" fill="#fbe493" stroke="#0d2445" stroke-miterlimit="10"></polygon>
  <rect x="38.7" y="501.23" width="412.1" height="21.46" fill="#f1f1f2" stroke="#0d2445" stroke-miterlimit="10"></rect>
  <path d="m38.7,548.09V233.96c0-35.17,28.51-63.69,63.69-63.69h284.72c35.17,0,63.69,28.51,63.69,63.69v314.12" fill="none" stroke="#0d2445" stroke-linecap="round" stroke-linejoin="round"></path>
  <circle cx="38.7" cy="546.88" r="9.74" fill="#fff" stroke="#0d2445" stroke-miterlimit="10"></circle>
  <circle cx="450.8" cy="546.88" r="9.74" fill="#fff" stroke="#0d2445" stroke-miterlimit="10"></circle>
  <rect x="350.14" y="451.34" width="82.58" height="62.31" fill="#e6e7e8" stroke="#0d2445" stroke-miterlimit="10"></rect>
  <rect x="344.33" y="448.73" width="94.19" height="25" rx="5.65" ry="5.65" fill="#fff" stroke="#0d2445" stroke-miterlimit="10"></rect>
  <rect x="379.85" y="477.05" width="22.9" height="6.33" rx="3.16" ry="3.16" fill="#fff" stroke="#0d2445" stroke-miterlimit="10"></rect>
  <rect x="201.01" y="451.34" width="82.58" height="62.31" fill="#e6e7e8" stroke="#0d2445" stroke-miterlimit="10"></rect>
  <rect x="195.21" y="448.73" width="94.19" height="25" rx="5.65" ry="5.65" fill="#fff" stroke="#0d2445" stroke-miterlimit="10"></rect>
  <path d="m234.02,477.05h16.57c1.75,0,3.16,1.42,3.16,3.16h0c0,1.75-1.42,3.16-3.16,3.16h-16.57c-1.75,0-3.16-1.42-3.16-3.16h0c0-1.75,1.42-3.16,3.16-3.16h0Z" fill="#fff" stroke="#0d2445" stroke-miterlimit="10"></path>
  <rect x="69.77" y="451.34" width="82.58" height="62.31" fill="#e6e7e8" stroke="#0d2445" stroke-miterlimit="10"></rect>
  <rect x="63.96" y="448.73" width="94.19" height="25" rx="5.65" ry="5.65" fill="#fff" stroke="#0d2445" stroke-miterlimit="10"></rect>
  <rect x="99.61" y="477.05" width="22.9" height="6.33" rx="3.16" ry="3.16" fill="#fff" stroke="#0d2445" stroke-miterlimit="10"></rect>
  <path d="m202.84,207.23l-17.82-8c-1.16-.52-2.11-1.4-2.71-2.52l-3.04-5.66c-.65-1.21-1.91-1.96-3.28-1.96h-14.02c-1.3,0-2.51.68-3.18,1.79l-3.65,6.02c-.56.93-1.37,1.67-2.34,2.16l-16.31,8.16c-.38.19-.58.62-.48,1.04l.86,3.49c.1.41.46.69.88.69h63.74c.41,0,.77-.27.88-.66l.97-3.47c.12-.44-.09-.9-.51-1.08Zm-13.93,2.99h-41.95c-.31,0-.37-.43-.08-.52l8.55-2.56c.87-.26,1.65-.76,2.25-1.44l2.92-3.29c.93-1.05,2.26-1.64,3.66-1.64h10.07c1.23,0,2.41.46,3.31,1.29l4.52,4.17c.37.34.78.62,1.23.83l5.62,2.65c.26.12.17.51-.11.51Z" fill="#fff" stroke="#0d2445" stroke-miterlimit="10"></path>
  <path d="m157.06,193.73s-5.31.43-9.95,5.15c-1.29,1.31-2.75,2.42-4.41,3.21l-8.99,4.28c-2.54,1.21-4.29,3.61-4.66,6.4-2.43,18.41-11.41,90.18-11.85,150.73,0,0,7.69,4.3,19.93,2.93l-1.25,41.19s4.53,6.04,46.8,4.24c1.2-.05,2.25-.83,2.64-1.96l3.62-10.45c.1-.29.53-.25.57.06l1.35,9.92c.21,1.55,1.6,2.66,3.16,2.51l26.99-2.5v-49.83l9.86-.78-19.45-145.17c-.37-2.79-2.13-5.19-4.67-6.39l-13.73-6.48s-7.44-6.02-12.3-7.03l1.6,2.98s.45,1.24,2.71,2.52l4.15,1.86-11.24,83.5-25.12-85.53s1.88-1.09,2.34-2.16l1.92-3.17Z" fill="#fbe493" stroke="#0d2445" stroke-miterlimit="10"></path>
  <polyline points="144.95 200.76 142.11 218.67 154.05 227.5" fill="none" stroke="#0d2445" stroke-linecap="round" stroke-linejoin="round"></polyline>
  <path d="m149.84,224.38l-5.71,9.18c-1.2,1.92-1.06,4.39.35,6.16,6.55,8.29,24.95,32.74,32.41,54.71,1.04,3.06,1.59,6.25,1.72,9.48.59,15.02,2.95,65.5,8.67,83.97" fill="none" stroke="#0d2445" stroke-linecap="round" stroke-linejoin="round"></path>
  <path d="m131.96,207.48s6,20.01,7.56,32.99" fill="none" stroke="#0d2445" stroke-linecap="round" stroke-linejoin="round"></path>
  <path d="m138.15,255.53s-4.44,73.33-1.01,110.89" fill="none" stroke="#0d2445" stroke-linecap="round" stroke-linejoin="round"></path>
  <path d="m117.52,346.83s10.04,2.66,18.62,2.39" fill="none" stroke="#0d2445" stroke-linecap="round" stroke-linejoin="round"></path>
  <path d="m117.52,356.04s9.34,3.09,19.04,2.68" fill="none" stroke="#0d2445" stroke-linecap="round" stroke-linejoin="round"></path>
  <polygon points="142.11 351.59 143.32 380.06 154.05 386.29 162.87 379.58 162.87 350.92 142.11 351.59" fill="none" stroke="#0d2445" stroke-linecap="round" stroke-linejoin="round"></polygon>
  <line x1="142.36" y1="357.39" x2="162.87" y2="357.39" fill="none" stroke="#0d2445" stroke-linecap="round" stroke-linejoin="round"></line>
  <line x1="221.01" y1="359.6" x2="218.23" y2="326.67" fill="none" stroke="#0d2445" stroke-linecap="round" stroke-linejoin="round"></line>
  <line x1="228.2" y1="338.89" x2="219.62" y2="340.61" fill="none" stroke="#0d2445" stroke-linecap="round" stroke-linejoin="round"></line>
  <line x1="229.59" y1="349.24" x2="220.28" y2="350.92" fill="none" stroke="#0d2445" stroke-linecap="round" stroke-linejoin="round"></line>
  <polyline points="219.62 348.03 210.82 350.08 215.22 379.76 221.01 383.62" fill="none" stroke="#0d2445" stroke-linecap="round" stroke-linejoin="round"></polyline>
  <line x1="221.01" y1="354.55" x2="211.7" y2="356.04" fill="none" stroke="#0d2445" stroke-linecap="round" stroke-linejoin="round"></line>
  <polyline points="195.71 202.04 201.9 223.98 191.94 229.05" fill="none" stroke="#0d2445" stroke-linecap="round" stroke-linejoin="round"></polyline>
  <path d="m182.6,289.26s3.9-8.13,7.97-18.37c4.6-11.56,9.43-25.79,9.16-34.05l-4.73-9.34" fill="none" stroke="#0d2445" stroke-linecap="round" stroke-linejoin="round"></path>
  <line x1="206.07" y1="270.01" x2="190.57" y2="270.89" fill="none" stroke="#0d2445" stroke-linecap="round" stroke-linejoin="round"></line>
  <line x1="204.83" y1="275.06" x2="188.26" y2="276.54" fill="none" stroke="#0d2445" stroke-linecap="round" stroke-linejoin="round"></line>
  <path d="m260.97,206.19l-17.82-8c-1.16-.52-2.11-1.4-2.71-2.52l-3.04-5.66c-.65-1.21-1.91-1.96-3.28-1.96h-14.02c-1.3,0-2.51.68-3.18,1.79l-3.65,6.02c-.56.93-1.37,1.67-2.34,2.16l-16.31,8.16c-.38.19-.58.62-.48,1.04l.86,3.49c.1.41.46.69.88.69h63.74c.41,0,.77-.27.88-.66l.97-3.47c.12-.44-.09-.9-.51-1.08Zm-13.93,2.99h-41.95c-.31,0-.37-.43-.08-.52l8.55-2.56c.87-.26,1.65-.76,2.25-1.44l2.92-3.29c.93-1.05,2.26-1.64,3.66-1.64h10.07c1.23,0,2.41.46,3.31,1.29l4.52,4.17c.37.34.78.62,1.23.83l5.62,2.65c.26.12.17.51-.11.51Z" fill="#fff" stroke="#0d2445" stroke-miterlimit="10"></path>
  <path d="m227.86,188.05v-4.89c0-.46-.34-.86-.8-.93-4.25-.69-7.45-4.52-7.16-9.03.28-4.23,3.74-7.7,7.97-7.97,3.31-.22,6.26,1.45,7.86,4.04" fill="none" stroke="#0d2445" stroke-linecap="round" stroke-linejoin="round"></path>
  <path d="m244.71,209.17l4.81,110.52c.02.39-.28.73-.68.76l-20.94,1.46c-.38.03-.68.34-.68.73v4.32c0,.28-.16.53-.4.65l-3.87,1.93c-.25.12-.4.37-.4.65v1.68c0,.4-.33.73-.73.73h-9.45c-.4,0-.73-.33-.73-.73h0c0-.45-.4-.8-.85-.72-1.41.25-4.27.48-6.19-1.19-.15-.13-.23-.33-.23-.54v-2.03c0-.4-.33-.73-.73-.73h-4.75c-.41,0-.74-.34-.73-.75l4.1-112.81c.03-.86.28-1.7.77-2.4.06-.08.12-.16.19-.25.69-.83,1.74-1.29,2.82-1.29h38.63Z" fill="#91d7f0" stroke="#0d2445" stroke-miterlimit="10"></path>
  <line x1="203.67" y1="326.67" x2="202.84" y2="280.96" fill="none" stroke="#0d2445" stroke-linecap="round" stroke-linejoin="round"></line>
  <line x1="210.82" y1="331.16" x2="209.07" y2="252.93" fill="none" stroke="#0d2445" stroke-linecap="round" stroke-linejoin="round"></line>
  <line x1="222.57" y1="330.2" x2="221.01" y2="307.95" fill="none" stroke="#0d2445" stroke-linecap="round" stroke-linejoin="round"></line>
  <line x1="227.91" y1="321.92" x2="223.86" y2="234.14" fill="none" stroke="#0d2445" stroke-linecap="round" stroke-linejoin="round"></line>
  <path d="m413.29,224.4c-.23-3.34-1.53-6.49-2.93-9.5-1.48-3.18-3.09-6.33-4.03-9.73-.57-2.08-.89-4.15-1.01-6.27-.01-.55,0-1.07.02-1.56.17-3.3.23-8.41-.28-10.6l-32-2.23-.83,10.15c.05,1.76.02,3.38-.07,4.91-.44,4.79-2.15,8.97-3.82,13.43-1.58,4.23-1.74,8.16-.43,12.46.88-.09.3-.91.16-1.53-.25-1.1-.42-2.23-.44-3.36-.04-2.53.6-4.92,1.55-7.24.5-1.24,1-2.45,1.48-3.66-.35,1.54-.71,3.03-1.06,4.54-1.33,5.69-3.29,13.44,6.34,15.85l28.84,2.98c3.83-3.57,6.25-9,4.87-15.65,1.02,1.97,1.91,4,2.36,6.18.26,1.31.46,2.71.36,4.05-.02.33-.36,3.16-.29,3.18.49.12.54.27.67-.25.15-.63.28-1.27.39-1.91.23-1.4.26-2.82.16-4.23Z" fill="#0d2445"></path>
  <path d="m399.75,202.39l-22.83-1.59c-5.27,17.52-3.73,25.24-3.73,25.24l27.22,1.9c4.32-7.34,1.33-19.09-.66-25.55Z" fill="#0d2445"></path>
  <path d="m312.78,549.25s-6-.36-7.24,2.11c0,0-6.31,10.42-11.1,11.1,0,0-11.51-.14-10.83,6.31h53.32s.67-10.06-3.3-13.46l-11.78-3.81-5.42-2.86-3.66.61Z" fill="#fbe493" stroke="#0d2445" stroke-miterlimit="10"></path>
  <path d="m316.44,543.02s-1.41,4.68-3.66,6.23c0,0,1.69.56,1.83,3.95,0,0-.42,5.21,5.92,4.79l13.11-2.68-1-6.67-16.2-5.62Z" fill="#e5e5e4" stroke="#0d2445" stroke-miterlimit="10"></path>
  <polygon points="381.11 555.46 381.11 546.67 395.46 546.67 395.46 554.72 381.11 555.46" fill="#e5e5e4" stroke="#0d2445" stroke-miterlimit="10"></polygon>
  <polygon points="321.9 515.09 316.44 543.02 332.64 548.64 339.42 521.7 321.9 515.09" fill="#efb0be" stroke="#0d2445" stroke-miterlimit="10"></polygon>
  <polygon points="381.11 526.89 381.11 546.67 395.46 546.67 398.33 524.96 381.11 526.89" fill="#efb0be" stroke="#0d2445" stroke-miterlimit="10"></polygon>
  <path d="m340.97,322.85l-21.28,193.4,33.77,11.57,10.18-72.28h6.94l2.31,72.28,37.01-4.16-4.63-96.24,5.24-67.36c.37-4.72-.12-9.46-1.43-14l-3.99-13.79-12.17-22.37h-54.28l2.31,12.96Z" fill="#f58f74" stroke="#0d2445" stroke-miterlimit="10"></path>
  <path d="m326.45,202.31s9.68,20.09,28.31,23.72h8.23s2.27-.85,3.07,2.24l23.55,7.69,19.96.7s18.76,8.98,15.86,31.24c0,0-4.11,13.31-2.42,23.47,0,0,4.36,13.31.48,16.7,0,0,6.78,26.86-18.39,24.2,0,0-6.75-1.69-9.67-12.34,0,0-16.95-5.57-31.47-5.81l-30.49-30.01-2.9-30.01-18.88-20.33v-15.24s10.65-10.66,14.76-16.22Z" fill="#fbe493" stroke="#0d2445" stroke-miterlimit="10"></path>
  <path d="m380.76,217.99s.77,4.77-2.63,6.08l-12.06,4.19s-.86,3.94-.41,8.65c.89,9.39,9.94,15.73,19.1,13.49,6.12-1.5,14.85-5.13,24.81-13.76l-13.89-10.48,1.81-17.82-8.89,4.19-7.85,5.45Z" fill="#efb0be" stroke="#0d2445" stroke-miterlimit="10"></path>
  <path d="m314.12,246.49s10.28,7.99,22.48,10.05l3.01,13.78,5.97-11.42s7.88-.93,19.03-6.67v25.47l-13.29,14.9h-24.58l-19.53-39.06,6.91-7.07Z" fill="#91d7f0" stroke="#0d2445" stroke-miterlimit="10"></path>
  <rect x="283.59" y="568.77" width="53.4" height="8.15" fill="#fff" stroke="#0d2445" stroke-miterlimit="10"></rect>
  <rect x="373.24" y="569.61" width="28.63" height="8.15" fill="#fff" stroke="#0d2445" stroke-miterlimit="10"></rect>
  <path d="m373.26,569.61s-.45-5.96,3.13-6.55c0,0-.15-5.06,2.09-5.81,0,0,2.38-5.81,9.09-6.18,0,0,7.75-2.01,9.24,5.29l2.59,3.05c.44.52.69,1.18.69,1.87v3.72s1.94,1.02,1.79,4.55l-28.6.07Z" fill="#fbe493" stroke="#0d2445" stroke-miterlimit="10"></path>
  <path d="m411.51,330.3c-.25.05-.5.09-.75.11-2.84.3-5.62-.81-7.64-2.82-7.24-7.2-6.58-22.19-6.56-22.53l2.3,6.3s4.43,12.71,12.51,8.09c.22,2.57,1.28,4.65,2.14,5.95,1.25,1.89.22,4.45-1.99,4.9Z" fill="#fbe493" stroke="#0d2445" stroke-miterlimit="10"></path>
  <path d="m409.58,288.85l6.08,5.85s4.11,3.11,3.99,7.77" fill="none" stroke="#0d2445" stroke-linecap="round" stroke-linejoin="round"></path>
  <path d="m354.77,226.03s-10.07,7.68-15.68,32.88" fill="none" stroke="#0d2445" stroke-linecap="round" stroke-linejoin="round"></path>
  <path d="m314.12,246.49l24.32-16.59c1.27-.87,2.97-.77,4.14.24l23.9,20.72-3.1,3.44-21.06-16.86c-1.19-.95-2.87-1-4.11-.1l-21.56,15.57-2.53-6.42Z" fill="#fff" stroke="#0d2445" stroke-miterlimit="10"></path>
  <rect x="371.46" y="182.46" width="26.03" height="36.08" rx="11.93" ry="11.93" fill="#efb0be" stroke="#0d2445" stroke-miterlimit="10"></rect>
  <ellipse cx="398.35" cy="204.42" rx="2.91" ry="3.92" fill="#efb0be" stroke="#0d2445" stroke-miterlimit="10"></ellipse>
  <path d="m369.77,303.41l4.11,1.66,16.88-21.11c3.56-4.45,2.66-10.97-1.96-14.3l-24.19-17.42s-13.12,22.73-24.52,29.11c-2.99,1.67-6.76.92-8.97-1.69-3.55-4.18-9.48-13.37-16.99-33.17l-16.12-.78c-1.95-.09-3.53,1.57-3.32,3.52.97,9.23,4.01,33.54,10.13,47.36,0,0,1.83,3,4.66,2.83l2.23,10.49-41.47,113.1c-2.21,6.03.43,12.77,6.15,15.7l32.92,16.84.88,6.37c.81,5.91,6.57,9.81,12.36,8.39l62.06-13.91c4.39-.98,7.14-5.35,6.12-9.73l-29.21-126.18,8.27-17.06Z" fill="#91d7f0" stroke="#0d2445" stroke-miterlimit="10"></path>
  <path d="m309.29,455.54s-3.69-48.93,2.4-110.35" fill="none" stroke="#0d2445" stroke-linecap="round" stroke-linejoin="round"></path>
  <path d="m311.69,309.9s20.63-.67,49.81,10.57" fill="none" stroke="#0d2445" stroke-linecap="round" stroke-linejoin="round"></path>
  <line x1="309.94" y1="296.5" x2="308.19" y2="258.91" fill="none" stroke="#0d2445" stroke-linecap="round" stroke-linejoin="round"></line>
  <line x1="370.29" y1="301.63" x2="385.85" y2="272.29" fill="none" stroke="#0d2445" stroke-linecap="round" stroke-linejoin="round"></line>
  <path d="m411.37,319.45c-8.09,4.62-12.51-8.09-12.51-8.09l-2.3-6.3h0s-14.26-39.13-14.26-39.13l-9.76-1.97c-5.16-1-4.66-5.33-4.66-5.33-2.5-1.5-1.33-3.99-1.33-3.99-2.5-1-1.96-3.79-1.96-3.79-4.82-1.41-4.24-5.33-4.24-5.33l15.4.96c10.59,2.12,21.08,18.1,21.08,18.1l12.74,24.26-1.48,14.63c.38,10.42,3.18,15.81,3.27,15.97h0Z" fill="#efb0be" stroke="#0d2445" stroke-miterlimit="10"></path>
  <path d="m264.49,204.42v37.52c0,2.27,1.02,4.42,2.79,5.85l15.5,12.58s28.82,28.4,29.9,17.33l-.98-59.17s12.63-11.9,16.69-19.24c.4-.72.43-1.58.12-2.34l-5.95-14.49-3.46-17.64c-.48-2.47-1.67-4.74-3.41-6.55l-8.48-8.84s-30.27,23.65-44.87,1.58c-.03-.05-.1-.05-.14,0-.5.63-3.34,4.5-3.81,10.73-.1,1.34-.33,2.66-.7,3.95l-6.76,23.06c-.61,2.08.07,4.33,1.73,5.72l11.84,9.95Z" fill="#428cca" stroke="#0d2445" stroke-miterlimit="10"></path>
  <line x1="263.75" y1="180.07" x2="264.49" y2="204.42" fill="none" stroke="#0d2445" stroke-linecap="round" stroke-linejoin="round"></line>
  <path d="m311.69,218.54s-3.85,3.57-6.51,4.07c-.81.15-1.43-.73-1.03-1.45,2.3-4.16,10.82-18.16,23.62-22.65.44-.16.84.33.6.73-1.39,2.36-5.59,8.52-16.69,19.31Z" fill="#428cca" stroke="#0d2445" stroke-miterlimit="10"></path>
  <path d="m304.03,222.62l-4.38-21.21c-1.06-5.12-.98-10.42.31-15.49,2.03-7.98,6.53-18.61,16.28-21.16" fill="none" stroke="#0d2445" stroke-linecap="round" stroke-linejoin="round"></path>
  <path d="m262.27,150.91s7.91-5.46,14.79-17.44c0,0,3.99-9.99,7.1-9.99h6.76c1.88,0,3.68.87,4.74,2.42.72,1.04,1.35,2.48,1.59,4.46,0,0,4.29,13.17,9.96,19.07l-4.84,3.28s-6.44-3.77-8.66-14.61c0,0-1.78-6.62-4-6.62l-3.54-.26c-1.04-.08-2.06.34-2.75,1.12-.5.57-1.19,2.08-1.57,3.4-.78,2.72-2.08,5.26-3.83,7.49-2.44,3.1-6.42,7.14-12.78,11.39l-2.96-3.7Z" fill="#fff" stroke="#0d2445" stroke-miterlimit="10"></path>
  <path d="m269.54,137.13s-4.08,4.12.91,5.84c0,0,5.55,2.28,7.1-1.61,0,0,3.01-1,1.56-3.67,0,0,2.9-1.89.39-5.23,0,0,3.14-1.89,2.5-5.99-.25-1.55-2.05-2.3-3.3-1.34-.51.39-1.08.99-1.71,1.87,0,0-3.23.45-3.45,4.01,0,0-5.43.89-4.01,6.12Z" fill="#efb0be" stroke="#0d2445" stroke-miterlimit="10"></path>
  <path d="m269.41,151.6s4.83,5.4,9.96,8.82c0,0-8.29.54-14.13-5.81l4.18-3.01Z" fill="#428cca" stroke="#0d2445" stroke-miterlimit="10"></path>
  <path d="m274.22,147.43l3.92,4.18,2.97,8.83s7.11-.39,13.39-3.59l-4.28-11.13-.42-5.39c-.06-.81-.33-1.58-.79-2.25-1.23-1.8-3.71-5.73-4.28-8.86,0,0-3.55,0-2.58,5.58,0,0-.7,5.79-7.94,12.63Z" fill="#efb0be" stroke="#0d2445" stroke-miterlimit="10"></path>
  <path d="m281.39,139.05s-1.66,5.48,0,10.38" fill="none" stroke="#0d2445" stroke-linecap="round" stroke-linejoin="round"></path>
  <path d="m277.56,141.36s-2.88-.32-6.12-2.31" fill="none" stroke="#0d2445" stroke-linecap="round" stroke-linejoin="round"></path>
  <path d="m279.12,137.69s-4.61-1.08-6.82-2.87" fill="none" stroke="#0d2445" stroke-linecap="round" stroke-linejoin="round"></path>
  <path d="m279.51,132.46s-1.64.2-3.8-.62" fill="none" stroke="#0d2445" stroke-linecap="round" stroke-linejoin="round"></path>
  <path d="m405.3,189.39c-.06-5.41-2.86-14.85-15.82-15.54-5.78-1.1-12.17-.54-17.75,4.95-5.58,5.5-5.62,14.5.53,17.26l.54-.03s-1.12-3.57.03-7.21c0,.04,0,.09,0,.13-.01.22,0,.46-.01.7,0,.24.01.49.03.75.02.25.03.51.08.77.03.26.07.51.12.76.03.12.05.25.07.37.03.12.06.24.09.36.03.12.06.23.09.35.04.11.08.22.11.32.07.21.14.41.22.59.08.18.15.34.21.48.08.14.14.26.2.36.11.2.17.31.17.31l.15-.09s-.06-.11-.16-.31c-.05-.1-.11-.22-.18-.35-.06-.14-.12-.3-.2-.48-.08-.17-.14-.37-.2-.58-.03-.1-.07-.21-.1-.32-.03-.11-.05-.22-.08-.34-.03-.12-.05-.23-.08-.35-.02-.12-.04-.24-.06-.36-.05-.24-.07-.5-.1-.75-.03-.25-.03-.5-.05-.75,0-.25,0-.49,0-.73,0-.19.01-.38.03-.56.12,2.69.89,5.11,3.04,6.29l.64-.04-.39-.73s.42.49.73.55l.55-.13s-1.65-3.88-.38-9.21c0,.16,0,.33.02.52.03.57.09,1.23.21,1.93.06.35.14.71.23,1.07.09.36.2.72.32,1.08.12.36.26.71.41,1.05.08.17.16.33.24.5.09.16.17.32.25.48.09.15.18.3.27.45.09.14.18.28.27.42.1.13.19.26.28.38.09.12.19.23.28.34.09.11.18.21.27.31.09.09.17.19.25.27.16.16.3.31.42.42.25.22.39.34.39.34l.11-.13s-.13-.13-.37-.35c-.12-.11-.25-.26-.41-.42-.08-.08-.15-.18-.24-.27-.08-.1-.17-.19-.25-.31-.08-.11-.17-.22-.26-.34-.08-.12-.17-.25-.26-.38-.08-.13-.17-.27-.26-.41-.08-.14-.16-.29-.25-.44-.08-.15-.16-.31-.24-.47-.07-.16-.14-.33-.22-.49-.14-.34-.27-.68-.37-1.03-.11-.35-.21-.71-.29-1.06-.08-.35-.15-.7-.2-1.05-.01-.1-.02-.19-.04-.28.55,2.45,1.87,5.81,5.02,7.18l1.12-.11-.43-.98s.41.4.97.44l.55-.1s-1.59-2.23-1.99-4.84c1.72,2.5,4.26,4.27,7.16,4.85,0,0,1.37-.26,1.7-.31-.2-.58-.77-2.04-.77-2.04,0,0,2.68,2.83,4.91,3.72.59,1.24,3.04,3.59,5.44,4.45,1.6-1.86,3.74-5.46,3.69-10.81Z" fill="#0d2445"></path>
  <path d="m400.4,235.1s-.13,0-.36-.01c-.23-.02-.58-.04-1-.15-.42-.1-.93-.28-1.43-.62-.51-.32-1-.81-1.42-1.43-.41-.62-.75-1.37-.99-2.19-.25-.82-.41-1.72-.51-2.66-.1-.94-.13-1.92-.11-2.91.02-.99.09-2,.19-3.01.11-1.09.27-2.18.45-3.24,2.68-6.7,5.75-15.99,5.29-27.75l-6.27-.44c-.02,13.77-5.38,26.83-9.04,33.64-.06.11-.11.22-.17.33-.82,1.52-1.59,3.07-2.18,4.59-.34.88-.61,1.75-.8,2.59-.21.84-.3,1.65-.36,2.41,0,.19-.02.37-.03.55,0,.18,0,.36,0,.53,0,.34.03.67.05.97.01.31.07.59.1.85.03.26.08.5.13.72.08.43.17.77.23.99.06.23.09.35.09.35.01.04.05.07.1.07.05,0,.09-.05.08-.1v-.02s-.01-.13-.03-.36c-.03-.23-.06-.57-.08-1.01-.04-.43-.03-.95-.03-1.54,0-.3.02-.61.06-.94.02-.16.03-.33.05-.5.03-.17.05-.34.07-.52.11-.71.28-1.46.53-2.23.08-.25.17-.51.26-.77-.14,4.18,1.62,7.54,4.29,8.03,1.13,1.37,2.6,1.17,2.75.97-1.03-1.06-2-2.53-1.63-2.15,1.66,1.12,2.81,1.11,3.11.8,1.34.26,2.15-.22,2.54-.85-.57-.25-1.32-.49-1.32-.49,0,0,1.29.04,1.86-.76-1.23-.48-4.03-2.69-3.36-7.99.07-.52.21-1.1.42-1.76,0,.29,0,.59.03.88.05.71.11,1.4.23,2.07.13.67.28,1.31.49,1.9.03.07.05.15.07.22.03.07.06.14.09.21.06.14.12.28.17.41.07.13.13.26.19.39.03.06.06.13.09.19.04.06.07.12.1.18.07.12.14.23.2.35.07.11.15.21.22.32.14.21.29.39.43.56.14.18.29.32.43.45.07.07.13.13.2.19.07.06.13.11.19.16.24.21.45.34.59.44.14.09.21.14.21.14.04.02.09.02.12-.01.04-.04.03-.1,0-.13h0s-.06-.07-.18-.18c-.06-.06-.13-.12-.22-.2-.09-.08-.17-.19-.27-.3-.05-.06-.1-.11-.16-.18-.06-.06-.11-.13-.16-.21-.11-.14-.23-.29-.34-.47-.11-.17-.24-.36-.34-.56-.06-.1-.11-.2-.17-.31-.05-.11-.1-.22-.16-.34-.03-.06-.05-.12-.08-.17-.02-.06-.05-.12-.07-.18-.05-.12-.1-.25-.15-.38-.08-.26-.18-.53-.24-.81-.16-.56-.26-1.17-.34-1.81-.09-.63-.12-1.3-.14-1.97,0-.57,0-1.15.03-1.73,0,.16.02.32.03.48.03.52.1,1.03.17,1.53.07.5.19,1,.31,1.48.13.48.27.95.44,1.4.35.9.82,1.72,1.37,2.4.28.34.6.63.91.88.32.25.64.46.97.6.65.3,1.25.42,1.73.44.12,0,.23.01.34,0,.11,0,.21,0,.3,0,.18-.02.34-.04.46-.06.12-.02.22-.04.28-.06.06-.01.09-.02.09-.02h.01s.07-.05.07-.09c0-.05-.04-.09-.09-.1Z" fill="#0d2445"></path>
  <rect x="525.96" y="157.66" width="7.15" height="390.73" fill="#fff" stroke="#0d2445" stroke-miterlimit="10"></rect>
  <rect x="749.99" y="157.66" width="7.15" height="390.73" fill="#fff" stroke="#0d2445" stroke-miterlimit="10"></rect>
  <path d="m551.17,107.51l-103.96,50.16h389.59l-122.15-50.94c-4.22-1.76-8.74-2.66-13.31-2.66h-135.14c-5.2,0-10.34,1.17-15.03,3.44Z" fill="#91d7f0" stroke="#0d2445" stroke-linecap="round" stroke-linejoin="round"></path>
  <path d="m473.82,157.67c-.79,5.91-6.42,10.49-13.25,10.49s-12.75-4.41-13.3-10.5" fill="none" stroke="#0d2445" stroke-linecap="round" stroke-linejoin="round"></path>
  <path d="m501.31,157.67c-.79,5.91-6.42,10.49-13.25,10.49s-12.75-4.41-13.3-10.5" fill="none" stroke="#0d2445" stroke-linecap="round" stroke-linejoin="round"></path>
  <path d="m529.22,157.67c-.79,5.91-6.42,10.49-13.25,10.49s-12.75-4.41-13.3-10.5" fill="none" stroke="#0d2445" stroke-linecap="round" stroke-linejoin="round"></path>
  <path d="m556.71,157.67c-.79,5.91-6.42,10.49-13.25,10.49s-12.75-4.41-13.3-10.5" fill="none" stroke="#0d2445" stroke-linecap="round" stroke-linejoin="round"></path>
  <path d="m585.43,157.67c-.79,5.91-6.42,10.49-13.25,10.49s-12.75-4.41-13.3-10.5" fill="none" stroke="#0d2445" stroke-linecap="round" stroke-linejoin="round"></path>
  <path d="m612.92,157.67c-.79,5.91-6.42,10.49-13.25,10.49s-12.75-4.41-13.3-10.5" fill="none" stroke="#0d2445" stroke-linecap="round" stroke-linejoin="round"></path>
  <path d="m640.84,157.67c-.79,5.91-6.42,10.49-13.25,10.49s-12.75-4.41-13.3-10.5" fill="none" stroke="#0d2445" stroke-linecap="round" stroke-linejoin="round"></path>
  <path d="m668.33,157.67c-.79,5.91-6.42,10.49-13.25,10.49s-12.75-4.41-13.3-10.5" fill="none" stroke="#0d2445" stroke-linecap="round" stroke-linejoin="round"></path>
  <path d="m697.33,157.67c-.79,5.91-6.42,10.49-13.25,10.49s-12.75-4.41-13.3-10.5" fill="none" stroke="#0d2445" stroke-linecap="round" stroke-linejoin="round"></path>
  <path d="m726.05,157.67c-.79,5.91-6.42,10.49-13.25,10.49s-12.75-4.41-13.3-10.5" fill="none" stroke="#0d2445" stroke-linecap="round" stroke-linejoin="round"></path>
  <path d="m753.54,157.67c-.79,5.91-6.42,10.49-13.25,10.49s-12.75-4.41-13.3-10.5" fill="none" stroke="#0d2445" stroke-linecap="round" stroke-linejoin="round"></path>
  <path d="m781.46,157.67c-.79,5.91-6.42,10.49-13.25,10.49s-12.75-4.41-13.3-10.5" fill="none" stroke="#0d2445" stroke-linecap="round" stroke-linejoin="round"></path>
  <path d="m808.95,157.67c-.79,5.91-6.42,10.49-13.25,10.49s-12.75-4.41-13.3-10.5" fill="none" stroke="#0d2445" stroke-linecap="round" stroke-linejoin="round"></path>
  <path d="m836.81,157.67c-.79,5.91-6.42,10.49-13.25,10.49s-12.75-4.41-13.3-10.5" fill="none" stroke="#0d2445" stroke-linecap="round" stroke-linejoin="round"></path>
  <rect x="776.79" y="428.18" width="7.74" height="120.21" fill="#d0d2d3" stroke="#0d2445" stroke-miterlimit="10"></rect>
  <circle cx="754.9" cy="262.74" r="31.88" fill="#fbe493" stroke="#0d2445" stroke-miterlimit="10"></circle>
  <circle cx="754.9" cy="262.74" r="28.69" fill="none" stroke="#0d2445" stroke-linecap="round" stroke-linejoin="round"></circle>
  <ellipse cx="754.91" cy="246.82" rx="2.08" ry="3.62" fill="#91d7f0" stroke="#0d2445" stroke-miterlimit="10"></ellipse>
  <ellipse cx="763.25" cy="248.84" rx="3.62" ry="2.08" transform="translate(189.09 809.93) rotate(-62.4)" fill="#91d7f0" stroke="#0d2445" stroke-miterlimit="10"></ellipse>
  <ellipse cx="768.43" cy="254.98" rx="3.62" ry="2.08" transform="translate(-11.31 472.93) rotate(-33.97)" fill="#91d7f0" stroke="#0d2445" stroke-miterlimit="10"></ellipse>
  <ellipse cx="741.11" cy="254.98" rx="2.08" ry="3.62" transform="translate(149.74 769.31) rotate(-60)" fill="#91d7f0" stroke="#0d2445" stroke-miterlimit="10"></ellipse>
  <ellipse cx="746.98" cy="249.52" rx="2.08" ry="3.62" transform="translate(-37.22 322.13) rotate(-23.76)" fill="#91d7f0" stroke="#0d2445" stroke-miterlimit="10"></ellipse>
  <ellipse cx="754.73" cy="278.76" rx="2.08" ry="3.62" fill="#91d7f0" stroke="#0d2445" stroke-miterlimit="10"></ellipse>
  <ellipse cx="746.38" cy="276.74" rx="3.62" ry="2.08" transform="translate(155.31 809.95) rotate(-62.4)" fill="#91d7f0" stroke="#0d2445" stroke-miterlimit="10"></ellipse>
  <ellipse cx="741.21" cy="270.61" rx="3.62" ry="2.08" transform="translate(-24.69 460.39) rotate(-33.97)" fill="#91d7f0" stroke="#0d2445" stroke-miterlimit="10"></ellipse>
  <ellipse cx="768.52" cy="270.61" rx="2.08" ry="3.62" transform="translate(149.9 800.86) rotate(-60)" fill="#91d7f0" stroke="#0d2445" stroke-miterlimit="10"></ellipse>
  <ellipse cx="762.66" cy="276.07" rx="2.08" ry="3.62" transform="translate(-46.59 330.7) rotate(-23.76)" fill="#91d7f0" stroke="#0d2445" stroke-miterlimit="10"></ellipse>
  <ellipse cx="770.61" cy="262.79" rx="3.62" ry="2.08" fill="#91d7f0" stroke="#0d2445" stroke-miterlimit="10"></ellipse>
  <ellipse cx="739.19" cy="262.74" rx="3.62" ry="2.08" fill="#91d7f0" stroke="#0d2445" stroke-miterlimit="10"></ellipse>
  <circle cx="754.73" cy="262.84" r="8.02" fill="#fff" stroke="#0d2445" stroke-miterlimit="10"></circle>
  <circle cx="754.73" cy="262.84" r="5.42" fill="#91d7f0" stroke="#0d2445" stroke-miterlimit="10"></circle>
  <rect x="606.74" y="417.82" width="185.52" height="10.36" fill="#e6e7e8" stroke="#0d2445" stroke-miterlimit="10"></rect>
  <rect x="613.08" y="428.18" width="7.74" height="120.21" fill="#d0d2d3" stroke="#0d2445" stroke-miterlimit="10"></rect>
  <path d="m706.77,392.37c0-9.52-2.52-17.65-6.08-20.98v-6.79h.69c.37,0,.66-.3.66-.66v-1.63c0-.37-.3-.66-.66-.66h-8.55c-.36,0-.66.29-.66.66v1.64c0,.36.29.66.66.66h.69v6.79c-3.56,3.33-6.08,11.46-6.08,20.98s2.7,18.23,6.47,21.32h-.14v3.97h6.67v-3.97h-.14c3.77-3.08,6.47-11.46,6.47-21.32Z" fill="#fbe493" stroke="#0d2445" stroke-miterlimit="10"></path>
  <path d="m689.01,380.05c-1.63-.48-2.83-1.98-2.83-3.77,0-2.17,1.76-3.93,3.93-3.93.76,0,1.47.22,2.07.59" fill="none" stroke="#0d2445" stroke-miterlimit="10"></path>
  <path d="m702.32,373.36c.7-.63,1.62-1.02,2.64-1.02.76,0,1.47.22,2.07.59,1.11.69,1.86,1.93,1.86,3.34,0,2.07-1.61,3.77-3.64,3.92" fill="none" stroke="#0d2445" stroke-miterlimit="10"></path>
  <line x1="693.53" y1="364.6" x2="697.11" y2="364.6" fill="none" stroke="#0d2445" stroke-miterlimit="10"></line>
  <line x1="693.77" y1="413.86" x2="697.36" y2="413.86" fill="none" stroke="#0d2445" stroke-miterlimit="10"></line>
  <path d="m731.28,397.58c0-7.61-2.01-14.12-4.86-16.78v-5.43h.55c.29,0,.53-.24.53-.53v-1.3c0-.29-.24-.53-.53-.53h-6.84c-.29,0-.53.24-.53.53v1.31c0,.29.24.53.53.53h.56v5.43c-2.85,2.66-4.86,9.17-4.86,16.78s2.16,14.59,5.17,17.05h-.11v3.18h5.33v-3.18h-.11c3.01-2.47,5.17-9.17,5.17-17.05Z" fill="#fbe493" stroke="#0d2445" stroke-miterlimit="10"></path>
  <path d="m717.07,387.72c-1.31-.38-2.26-1.59-2.26-3.02,0-1.74,1.41-3.14,3.14-3.14.61,0,1.18.17,1.66.47" fill="none" stroke="#0d2445" stroke-miterlimit="10"></path>
  <path d="m727.72,382.38c.56-.51,1.3-.81,2.11-.81.61,0,1.18.17,1.66.47.89.55,1.48,1.54,1.48,2.67,0,1.66-1.28,3.02-2.91,3.13" fill="none" stroke="#0d2445" stroke-miterlimit="10"></path>
  <line x1="720.68" y1="375.37" x2="723.55" y2="375.37" fill="none" stroke="#0d2445" stroke-miterlimit="10"></line>
  <line x1="720.88" y1="414.77" x2="723.74" y2="414.77" fill="none" stroke="#0d2445" stroke-miterlimit="10"></line>
  <path d="m682.67,398.54c0-9.62-7.8-17.41-17.41-17.41s-17.41,7.8-17.41,17.41c0,7.39,4.6,13.7,11.1,16.23v2.98h12.63v-2.98c6.49-2.53,11.1-8.84,11.1-16.23Z" fill="#91d7f0" stroke="#0d2445" stroke-miterlimit="10"></path>
  <path d="m518.77,240.07c1.02-3.5,3.12-6.54,5.3-9.41,2.31-3.04,4.74-6.01,6.52-9.41,1.09-2.07,1.9-4.2,2.51-6.42.14-.59.25-1.14.34-1.67.58-3.55,1.7-8.99,2.73-11.19l34.5,4.99-1.46,10.97c-.46,1.85-.8,3.59-1.05,5.23-.64,5.18.22,10.02.96,15.14.7,4.86-.03,9.07-2.41,13.33-.91-.3-.11-1.04.18-1.66.52-1.11.96-2.27,1.24-3.46.63-2.67.49-5.36.03-8.05-.25-1.43-.5-2.83-.73-4.23.01,1.71.06,3.38.09,5.07.1,6.35.4,15.03-10.38,15.38l-31.32-3.48c-3.25-4.67-4.56-11-1.57-17.74-1.54,1.86-2.95,3.81-3.94,6.02-.58,1.34-1.11,2.77-1.31,4.22-.06.35-.34,3.44-.42,3.44-.54.01-.64.16-.65-.42-.02-.71,0-1.41.02-2.12.07-1.54.38-3.06.81-4.53Z" fill="#0d2445"></path>
  <path d="m541,219.73l22.82,1.18c3.11,18,.64,25.47.64,25.47l-27.21-1.41c-3.39-7.8.99-19.08,3.74-25.24Z" fill="#0d2445"></path>
  <path d="m508.51,526.68c2.38.21,4.48-1.51,4.75-3.88l2.97-25.96c2.59-19.34,4.83-50.24,4.83-50.24l1.38-36.6,2.76-34.01h2.07s3.8,19.34,3.8,19.34c5.18,20.03,10.7,66.47,10.7,66.47l1.04,44.2.37,15.3c.09,3.59,3.18,6.36,6.76,6.05l20.33-1.78c1.45-.13,2.55-1.37,2.49-2.82l-1.8-48.68-2.59-50.93c-.17-25.55-2.26-49.61-2.26-49.61l-30.89-27.04-17.65,2.59-28.85,13.64c-1.62,8.29.93,31.6.93,31.6.35,18.82-1.38,55.99-1.38,55.99l-4.58,69.56c-.18,2.72,1.86,5.07,4.58,5.28l20.18,1.55" fill="#fbe493" stroke="#0d2445" stroke-miterlimit="10"></path>
  <path d="m550.14,247.89l18.58,13.39c3.71,2.68,6.85,6.08,9.18,10.02.87,1.46,1.8,3.14,2.73,5.01,0,0,7.2,14.85,15.4,26.15,0,0,8.64,10.86,5.98,20.72,0,0-.78,9.2-15.73,7.09l-16.84-1.82,1.32-20.12s.11-2.11,4.1-1.99c0,0-6.2-8.31-12.63-11.97,0,0-.4,7.31.22,17.51,0,0-1.33,9.08.66,26.15l4.21,35.45-35.9,1.11v-22.6s-11.3,22.6-11.3,22.6l-34.57-13.07,11.13-55.84-35.73-46.53s-4.43-1.77-5.54,5.1l-15-4.66c-5.14-1.6-7.03-7.89-3.61-12.04.34-.41.71-.83,1.11-1.25,0,0,1.77-9.31,19.94-9.08,0,0,9.97,1.32,21.49,0,0,0,17.18-5.64,38.2,1.78,0,0,6.63,1.89,13.46.83l10.47,2.02,8.64,6.06Z" fill="#f58f74" stroke="#0d2445" stroke-miterlimit="10"></path>
  <path d="m551.06,237.78s-1.65,6.62-.92,10.11c0,0-10.84,3.12-19.11-8.09,0,0,7.91-4.03,7.93-15.73l-.67-3.17,3.22,1.07,11.87,2.81-2.32,12.99Z" fill="#efb0be" stroke="#0d2445" stroke-miterlimit="10"></path>
  <path d="m570.46,524.35l-1.87,26.32c-.14,1.95.76,3.82,2.37,4.93l15.68,10.85c1.41.98,3.05,1.58,4.76,1.76,2.24.24,5.26,1.11,4.94,4.07,0,0,2.42-.35,1.9,4.14h-47.3s-3.11-.86-.86-5.52l1.21-13.71c.46-5.24.51-10.5.14-15.75l-1-14.39s3.97.35,8.46-3.8c0,0,4.54-3.16,8.39-2.76,1.93.2,3.33,1.92,3.2,3.85Z" fill="#f58f74" stroke="#0d2445" stroke-miterlimit="10"></path>
  <line x1="596.34" y1="572.29" x2="556.97" y2="572.29" fill="none" stroke="#0d2445" stroke-linecap="round" stroke-linejoin="round"></line>
  <path d="m508.43,526.67l-3.35,27.71c-.16,1.3-.11,2.61.15,3.9.69,3.38,1.97,10.35,1.4,12.8,0,0,1.77.17,1.8,2.93v1.5c0,1-.75,1.85-1.75,1.96-2.42.27-7.41.56-15.24-.26l-8.65-.66c-1.01-.08-1.8-.91-1.8-1.93,0-1.59.39-3.66,2.36-3.73l6.35-16.34c.41-1.06.59-2.2.52-3.33l-1.54-26.27s2.03-.12,2.72-1.93c.28-.74.58-1.47,1.01-2.13,1.05-1.58,3.09-3.66,6.23-2.95,0,0,5.1,1.44,6.2,6.2,0,0,.72,2.28,3.58,2.53Z" fill="#f58f74" stroke="#0d2445" stroke-miterlimit="10"></path>
  <path d="m506.63,571.08s-1.56,1.71-8.32,1.21l-10.3-.56s-3.43.06-4.65-.83" fill="none" stroke="#0d2445" stroke-linecap="round" stroke-linejoin="round"></path>
  <path d="m440.11,321.05c1.46,12.64,18.13,22.34,18.13,22.34,18.49,10.62,29.53,7.08,29.53,7.08,8.29-8.49,22.47-32.9,22.47-32.9l10.62-2.75c15.93-3.48,15.99-28.92,15.99-28.92-2.33-8.59-15.98-6.97-15.98-6.97,1.28-7.14-12.09-18.31-12.09-18.31-5.31-3.66-3.66-12.33-3.66-12.33l2.75-22.65s7.23-.85,7.38-3.66c0,0,.46-6.83-13.13-8.84,0,0-20.4-2.01-19.78,4.17,0,0,.93,3.62,4.79,4.67,2.28.62,1.36,4.91,1.36,4.91l-6.15,19.62c-.45,1.32-.97,2.44-1.51,3.39-1.47,2.6-4.21,4.22-7.2,4.3-3.82.1-7.36,1.12-7.36,1.12-14.22,3.4-20.24,35.08-20.24,35.08-2.94,10.51-5.91,30.65-5.91,30.65Zm73.22-10.77c5.38-11.14,7.82-25.82,7.82-25.82,11.64-2.36,6.58,12.91,6.58,12.91-3.42,13.09-14.4,12.91-14.4,12.91Z" fill="#91d7f0" stroke="#0d2445" stroke-miterlimit="10"></path>
  <rect x="540.4" y="202.13" width="27.2" height="39.69" rx="12.46" ry="12.46" transform="translate(1108 443.96) rotate(180)" fill="#efb0be" stroke="#0d2445" stroke-miterlimit="10"></rect>
  <ellipse cx="538.29" cy="219.32" rx="3.22" ry="4.87" fill="#efb0be" stroke="#0d2445" stroke-miterlimit="10"></ellipse>
  <line x1="562.24" y1="294.37" x2="562.24" y2="276.7" fill="none" stroke="#0d2445" stroke-linecap="round" stroke-linejoin="round"></line>
  <path d="m570.77,308.33l-23.93-6.81c-1.98-.56-3.67-1.86-4.73-3.63-1.49-2.48-3.07-6.4-2.36-11.21.14-.95-.75-1.73-1.67-1.43-1.67.53-3.61,2.29-2.49,7.79l-8.62-3.37c-1.07-.44-2.3.03-2.8,1.08l-.13.27c-.58,1.21-.09,2.72,1.08,3.36h0s-2.32,1.16-1.33,3.32c0,0-1.65,1.99-.25,3.99,0,0-2.87,2.33-.57,5.15l9.95,7.81s4.49,2.66,9.64,0l27.08,10.66,1.12-16.97Z" fill="#efb0be" stroke="#0d2445" stroke-miterlimit="10"></path>
  <line x1="525.12" y1="294.37" x2="530.25" y2="296.47" fill="none" stroke="#0d2445" stroke-linecap="round" stroke-linejoin="round"></line>
  <line x1="523.8" y1="297.69" x2="528.48" y2="300.25" fill="none" stroke="#0d2445" stroke-linecap="round" stroke-linejoin="round"></line>
  <line x1="523.55" y1="301.68" x2="527.18" y2="304.86" fill="none" stroke="#0d2445" stroke-linecap="round" stroke-linejoin="round"></line>
  <path d="m504.27,221.98s-12.86-2.48-16.24.6" fill="none" stroke="#0d2445" stroke-linecap="round" stroke-linejoin="round"></path>
  <path d="m454.69,260.02c.55,5.36,1.59,14.75,2.49,17.96l5.46,2.3h5.6s4.31,1.65,4.31,1.65c0,0,3.45-.5,3.16,1.8,0,0,.72,2.73-3.3,2.87h-4.02s-4.02,0-.57,2.59l10.63,5.18s2.44.76,1.58,3.32c0,0-.43,3.33-11.49-1.22,0,0,11.92,5.25,10.06,8.39,0,0-.29,2.5-7.04.38,0,0,3.3,3.49-1.15,4.35,0,0-6.32-.12-11.92-4.73,0,0,5.32,5.45,3.45,7.89,0,0-2.01,1.72-5.03-1.58,0,0-4.74-4.14-7.33-12.2,0,0-2.44-6.34-4.88-10.5,0,0-3.88-4.88-5.32-16.09l-1.82-14.28c-.4-3.13,1.98-5.92,5.13-6.04,2.07-.08,4.53.19,7.1,1.27,2.74,1.15,4.61,3.73,4.91,6.69Z" fill="#efb0be" stroke="#0d2445" stroke-miterlimit="10"></path>
  <path d="m471.55,305.24s-6.19-1.46-8.87-4.99" fill="#efb0be" stroke="#0d2445" stroke-miterlimit="10"></path>
  <path d="m528.21,253.67s.13.03.39.07c.25.03.62.09,1.1.08.47-.01,1.05-.09,1.66-.32.61-.23,1.25-.63,1.83-1.19.58-.56,1.11-1.28,1.56-2.1.45-.82.83-1.74,1.15-2.71.32-.97.58-2.01.79-3.07.21-1.06.37-2.15.49-3.24.13-1.19.21-2.38.26-3.54-1.31-7.73-2.43-18.3.77-30.69l6.76.98c-3.15,14.63-.46,29.74,1.86,37.81.04.13.07.26.1.39.52,1.81.98,3.63,1.26,5.38.15,1.01.24,2,.26,2.94.03.94-.06,1.83-.17,2.64-.03.2-.07.4-.1.59-.03.19-.08.38-.12.56-.08.37-.18.7-.28,1.02-.09.32-.21.61-.3.88-.09.27-.2.51-.3.73-.18.44-.36.77-.48,1-.12.23-.18.35-.18.35-.02.04-.07.07-.12.05-.05-.02-.08-.07-.07-.13v-.02s.05-.13.12-.38c.08-.24.2-.6.32-1.05.14-.45.26-1.01.38-1.63.06-.32.12-.65.16-1.01.02-.18.05-.36.06-.54,0-.19.03-.38.04-.57.04-.78.04-1.61-.05-2.49-.02-.29-.06-.58-.1-.88-.81,4.47-3.45,7.64-6.41,7.54-1.52,1.19-3.03.64-3.15.39,1.33-.88,2.71-2.23,2.23-1.91-2.02.81-3.23.53-3.48.14-1.48-.03-2.23-.73-2.51-1.49.66-.13,1.52-.22,1.52-.22,0,0-1.38-.25-1.8-1.24,1.42-.23,4.9-1.93,5.4-7.71.05-.56.03-1.22-.04-1.97-.07.31-.15.62-.23.93-.21.74-.44,1.47-.72,2.15-.29.68-.6,1.33-.96,1.91-.04.07-.09.15-.13.22-.05.07-.09.14-.14.21-.09.14-.19.27-.28.4-.1.13-.2.25-.29.37-.05.06-.1.12-.14.18-.05.06-.1.11-.15.17-.1.11-.2.22-.3.32-.1.1-.21.19-.31.28-.19.19-.4.35-.59.49-.18.15-.38.27-.56.38-.09.05-.17.11-.25.16-.08.04-.16.09-.24.13-.3.17-.55.26-.72.33-.17.07-.26.1-.26.1-.05.02-.1,0-.12-.04-.03-.05-.01-.11.03-.14h0s.08-.05.23-.15c.08-.05.17-.1.28-.17.11-.06.22-.16.36-.25.07-.05.14-.1.21-.15.07-.05.14-.12.22-.18.15-.13.32-.26.47-.42.16-.16.33-.32.49-.52.08-.1.17-.19.25-.29.08-.11.16-.21.25-.32.04-.05.08-.11.13-.17.04-.06.08-.12.12-.18.08-.12.16-.24.24-.37.14-.26.31-.52.45-.81.3-.56.55-1.18.78-1.84.24-.65.43-1.35.6-2.06.14-.6.26-1.22.37-1.85-.05.17-.09.34-.14.5-.15.54-.34,1.07-.54,1.59-.19.52-.43,1.02-.67,1.5-.24.48-.51.95-.79,1.39-.58.88-1.27,1.64-2.01,2.23-.38.29-.78.53-1.17.72-.39.19-.79.34-1.17.42-.76.17-1.42.16-1.94.07-.13-.02-.25-.04-.36-.07-.11-.03-.22-.05-.31-.08-.19-.06-.35-.12-.48-.17-.13-.05-.22-.09-.28-.12-.06-.03-.1-.04-.1-.04h-.01s-.07-.07-.06-.12c.01-.05.06-.09.12-.08Z" fill="#0d2445"></path>
  <path d="m535.32,204.73c1.31-5.73,6.45-15.12,20.38-12.86,6.4.16,13.05,2.22,17.71,9.35,4.67,7.12,2.63,16.7-4.54,18.21l-.57-.15s2.01-3.53,1.62-7.67c0,.05-.01.09-.02.14-.04.24-.09.49-.15.75-.06.26-.13.52-.2.79-.08.26-.15.54-.26.8-.09.26-.19.53-.31.78-.06.13-.11.25-.16.38-.06.12-.12.24-.18.36-.06.12-.12.23-.18.35-.07.11-.13.21-.19.32-.13.21-.24.4-.37.57-.12.17-.24.33-.34.47-.11.13-.21.24-.29.33-.16.19-.25.29-.25.29l-.14-.13s.09-.11.24-.29c.08-.09.17-.21.27-.33.09-.14.2-.29.32-.46.12-.17.23-.36.35-.57.06-.1.12-.21.18-.32.05-.11.11-.23.16-.34.05-.12.11-.23.17-.35.05-.12.1-.25.15-.37.11-.25.19-.51.28-.77.09-.26.15-.53.23-.79.06-.26.12-.52.17-.77.04-.21.07-.41.1-.6-.74,2.84-2.12,5.22-4.67,5.98l-.67-.19.58-.68s-.56.42-.9.42l-.56-.27s2.64-3.75,2.53-9.7c-.04.17-.08.35-.14.55-.16.6-.38,1.28-.67,2-.14.36-.31.72-.49,1.08-.18.36-.38.72-.59,1.07-.21.35-.44.69-.68,1.02-.12.16-.25.32-.37.48-.13.15-.25.3-.38.45-.13.14-.26.28-.39.41-.13.13-.26.26-.39.38-.13.12-.26.23-.38.34-.13.11-.25.21-.37.3-.12.1-.24.18-.35.26-.11.08-.22.16-.32.23-.21.13-.39.26-.55.34-.31.18-.49.28-.49.28l-.09-.17s.17-.1.47-.28c.15-.09.32-.22.53-.35.1-.07.2-.15.31-.23.11-.08.23-.17.34-.27.11-.1.24-.2.36-.31.12-.11.24-.23.37-.34.12-.12.24-.25.37-.38.12-.13.24-.27.37-.41.12-.14.24-.3.36-.44.11-.16.23-.31.35-.47.22-.33.44-.66.64-1.01.2-.35.38-.7.55-1.06.17-.36.32-.71.45-1.07.04-.1.07-.19.1-.29-1.15,2.47-3.32,5.74-6.98,6.47l-1.16-.37.69-.94s-.52.33-1.14.25l-.56-.23s2.2-2.01,3.23-4.68c-2.4,2.26-5.51,3.55-8.72,3.5,0,0-1.39-.6-1.74-.72.35-.57,1.29-1.99,1.29-1.99,0,0-3.5,2.38-6.07,2.82-.91,1.18-4.06,3.12-6.8,3.47-1.27-2.35-2.72-6.66-1.43-12.33Z" fill="#0d2445"></path>
  <path d="m814.74,384.31h-15.12l8.34-15.44h11.23c3.93-3.46,1.54-7.84-1.88-7.84h-63.7c-3.93,3.46-1.54,7.84,1.88,7.84h8.82l8.87,15.44h-14.25c-11.18,0-20.08,9.37-19.5,20.53l7.95,154.92c.54,10.55,9.25,18.82,19.81,18.82h38.21c10.51,0,19.19-8.19,19.8-18.68l9.04-154.93c.65-11.21-8.26-20.67-19.5-20.67Z" fill="#f58f74" stroke="#0d2445" stroke-miterlimit="10"></path>
  <path d="m739.9,480.01l11.13-15.9h11.35c2.06,0,3.83-1.61,3.87-3.68.04-2.1-1.65-3.82-3.75-3.82h-6.63c.72-.74,1.14-1.77,1.05-2.9-.15-1.97-1.87-3.46-3.85-3.46h-56.56c-1.98,0-3.7,1.49-3.85,3.46-.09,1.13.33,2.16,1.05,2.9h-5.14c-2.06,0-3.83,1.61-3.87,3.68s1.65,3.82,3.75,3.82h12.38l9.99,15.9s-40.2-.91-29.76,34.3l19.13,56.6c1.6,4.72,6.03,7.91,11.02,7.91h29.19c5.15,0,9.69-3.39,11.15-8.33l17.81-60.13c1.55-5.24,1.41-10.87-.59-15.95-2.94-7.43-10.37-15.4-28.88-14.41Z" fill="#91d7f0" stroke="#0d2445" stroke-miterlimit="10"></path>
  <line x1="700.84" y1="464.11" x2="739.4" y2="464.11" fill="none" stroke="#0d2445" stroke-linecap="round" stroke-linejoin="round"></line>
  <line x1="693.72" y1="456.62" x2="755.88" y2="456.62" fill="none" stroke="#0d2445" stroke-linecap="round" stroke-linejoin="round"></line>
  <line x1="764.31" y1="368.87" x2="792.26" y2="368.87" fill="none" stroke="#0d2445" stroke-linecap="round" stroke-linejoin="round"></line>
</svg>
